<mxfile host="app.diagrams.net" modified="2024-06-18T00:40:48.961Z" agent="Mozilla/5.0 (Windows NT 10.0; Win64; x64) AppleWebKit/537.36 (KHTML, like Gecko) Chrome/125.0.0.0 Safari/537.36" etag="LN_bzyksNaqeaF5Vswh5" version="24.5.5" type="github">
  <diagram name="PÃ¡gina-1" id="U9sVXNLi1cfzZMgELVTF">
    <mxGraphModel dx="1348" dy="557" grid="1" gridSize="10" guides="1" tooltips="1" connect="1" arrows="1" fold="1" page="1" pageScale="1" pageWidth="827" pageHeight="1169" math="0" shadow="0">
      <root>
        <mxCell id="0" />
        <mxCell id="1" parent="0" />
        <mxCell id="oxTX_q_KPrcElpraufrz-17" style="edgeStyle=orthogonalEdgeStyle;rounded=0;orthogonalLoop=1;jettySize=auto;html=1;exitX=0.5;exitY=1;exitDx=0;exitDy=0;entryX=0;entryY=0.5;entryDx=0;entryDy=0;" edge="1" parent="1" source="oxTX_q_KPrcElpraufrz-4" target="oxTX_q_KPrcElpraufrz-7">
          <mxGeometry relative="1" as="geometry" />
        </mxCell>
        <mxCell id="oxTX_q_KPrcElpraufrz-4" value="Wind Speed Sensor" style="rounded=1;whiteSpace=wrap;html=1;fillColor=#e1d5e7;strokeColor=#9673a6;" vertex="1" parent="1">
          <mxGeometry x="70" y="220" width="120" height="60" as="geometry" />
        </mxCell>
        <mxCell id="oxTX_q_KPrcElpraufrz-16" style="edgeStyle=orthogonalEdgeStyle;rounded=0;orthogonalLoop=1;jettySize=auto;html=1;exitX=0.5;exitY=1;exitDx=0;exitDy=0;entryX=0.5;entryY=0;entryDx=0;entryDy=0;" edge="1" parent="1" source="oxTX_q_KPrcElpraufrz-5" target="oxTX_q_KPrcElpraufrz-7">
          <mxGeometry relative="1" as="geometry" />
        </mxCell>
        <mxCell id="oxTX_q_KPrcElpraufrz-5" value="Air Temp &amp;amp; Humidy Sensor" style="rounded=1;whiteSpace=wrap;html=1;fillColor=#e1d5e7;strokeColor=#9673a6;" vertex="1" parent="1">
          <mxGeometry x="250" y="220" width="120" height="60" as="geometry" />
        </mxCell>
        <mxCell id="oxTX_q_KPrcElpraufrz-15" style="edgeStyle=orthogonalEdgeStyle;rounded=0;orthogonalLoop=1;jettySize=auto;html=1;exitX=0.5;exitY=1;exitDx=0;exitDy=0;entryX=1;entryY=0.5;entryDx=0;entryDy=0;" edge="1" parent="1" source="oxTX_q_KPrcElpraufrz-6" target="oxTX_q_KPrcElpraufrz-7">
          <mxGeometry relative="1" as="geometry" />
        </mxCell>
        <mxCell id="oxTX_q_KPrcElpraufrz-6" value="Ground Temp Sensor" style="rounded=1;whiteSpace=wrap;html=1;fillColor=#e1d5e7;strokeColor=#9673a6;" vertex="1" parent="1">
          <mxGeometry x="450" y="220" width="120" height="60" as="geometry" />
        </mxCell>
        <mxCell id="oxTX_q_KPrcElpraufrz-18" style="edgeStyle=orthogonalEdgeStyle;rounded=0;orthogonalLoop=1;jettySize=auto;html=1;exitX=0.5;exitY=1;exitDx=0;exitDy=0;entryX=0.5;entryY=0;entryDx=0;entryDy=0;" edge="1" parent="1" source="oxTX_q_KPrcElpraufrz-7" target="oxTX_q_KPrcElpraufrz-8">
          <mxGeometry relative="1" as="geometry" />
        </mxCell>
        <mxCell id="oxTX_q_KPrcElpraufrz-19" value="Data flow" style="edgeLabel;html=1;align=center;verticalAlign=middle;resizable=0;points=[];" vertex="1" connectable="0" parent="oxTX_q_KPrcElpraufrz-18">
          <mxGeometry x="0.06" y="-2" relative="1" as="geometry">
            <mxPoint as="offset" />
          </mxGeometry>
        </mxCell>
        <mxCell id="oxTX_q_KPrcElpraufrz-7" value="Gateway" style="rounded=1;whiteSpace=wrap;html=1;fillColor=#e1d5e7;strokeColor=#9673a6;" vertex="1" parent="1">
          <mxGeometry x="250" y="370" width="120" height="60" as="geometry" />
        </mxCell>
        <mxCell id="oxTX_q_KPrcElpraufrz-20" style="edgeStyle=orthogonalEdgeStyle;rounded=0;orthogonalLoop=1;jettySize=auto;html=1;exitX=1;exitY=0.5;exitDx=0;exitDy=0;entryX=0.5;entryY=0;entryDx=0;entryDy=0;" edge="1" parent="1" source="oxTX_q_KPrcElpraufrz-8" target="oxTX_q_KPrcElpraufrz-10">
          <mxGeometry relative="1" as="geometry" />
        </mxCell>
        <mxCell id="oxTX_q_KPrcElpraufrz-21" value="Data" style="edgeLabel;html=1;align=center;verticalAlign=middle;resizable=0;points=[];" vertex="1" connectable="0" parent="oxTX_q_KPrcElpraufrz-20">
          <mxGeometry x="0.5161" y="-1" relative="1" as="geometry">
            <mxPoint as="offset" />
          </mxGeometry>
        </mxCell>
        <mxCell id="oxTX_q_KPrcElpraufrz-8" value="Kafka" style="rounded=1;whiteSpace=wrap;html=1;fillColor=#e1d5e7;strokeColor=#9673a6;" vertex="1" parent="1">
          <mxGeometry x="250" y="510" width="120" height="60" as="geometry" />
        </mxCell>
        <mxCell id="oxTX_q_KPrcElpraufrz-24" value="Data Normalization" style="edgeStyle=orthogonalEdgeStyle;rounded=0;orthogonalLoop=1;jettySize=auto;html=1;exitX=0.5;exitY=1;exitDx=0;exitDy=0;" edge="1" parent="1" source="oxTX_q_KPrcElpraufrz-9" target="oxTX_q_KPrcElpraufrz-12">
          <mxGeometry relative="1" as="geometry" />
        </mxCell>
        <mxCell id="oxTX_q_KPrcElpraufrz-9" value="Logstash" style="rounded=1;whiteSpace=wrap;html=1;fillColor=#e1d5e7;strokeColor=#9673a6;" vertex="1" parent="1">
          <mxGeometry x="30" y="600" width="120" height="60" as="geometry" />
        </mxCell>
        <mxCell id="oxTX_q_KPrcElpraufrz-29" value="Trigger External Notifcations" style="edgeStyle=orthogonalEdgeStyle;rounded=0;orthogonalLoop=1;jettySize=auto;html=1;exitX=0.5;exitY=1;exitDx=0;exitDy=0;entryX=0.5;entryY=0;entryDx=0;entryDy=0;" edge="1" parent="1" source="oxTX_q_KPrcElpraufrz-10" target="oxTX_q_KPrcElpraufrz-11">
          <mxGeometry relative="1" as="geometry" />
        </mxCell>
        <mxCell id="oxTX_q_KPrcElpraufrz-10" value="n8n" style="rounded=1;whiteSpace=wrap;html=1;fillColor=#e1d5e7;strokeColor=#9673a6;" vertex="1" parent="1">
          <mxGeometry x="480" y="750" width="120" height="60" as="geometry" />
        </mxCell>
        <mxCell id="oxTX_q_KPrcElpraufrz-11" value="External Services" style="rounded=1;whiteSpace=wrap;html=1;fillColor=#e1d5e7;strokeColor=#9673a6;" vertex="1" parent="1">
          <mxGeometry x="480" y="900" width="120" height="60" as="geometry" />
        </mxCell>
        <mxCell id="oxTX_q_KPrcElpraufrz-25" style="edgeStyle=orthogonalEdgeStyle;rounded=0;orthogonalLoop=1;jettySize=auto;html=1;exitX=0.5;exitY=1;exitDx=0;exitDy=0;entryX=0.5;entryY=0;entryDx=0;entryDy=0;" edge="1" parent="1" source="oxTX_q_KPrcElpraufrz-12" target="oxTX_q_KPrcElpraufrz-13">
          <mxGeometry relative="1" as="geometry" />
        </mxCell>
        <mxCell id="oxTX_q_KPrcElpraufrz-26" style="edgeStyle=orthogonalEdgeStyle;rounded=0;orthogonalLoop=1;jettySize=auto;html=1;exitX=0.5;exitY=1;exitDx=0;exitDy=0;entryX=0.5;entryY=0;entryDx=0;entryDy=0;" edge="1" parent="1" source="oxTX_q_KPrcElpraufrz-12" target="oxTX_q_KPrcElpraufrz-14">
          <mxGeometry relative="1" as="geometry" />
        </mxCell>
        <mxCell id="oxTX_q_KPrcElpraufrz-27" style="edgeStyle=orthogonalEdgeStyle;rounded=0;orthogonalLoop=1;jettySize=auto;html=1;exitX=1;exitY=0.5;exitDx=0;exitDy=0;" edge="1" parent="1" source="oxTX_q_KPrcElpraufrz-12" target="oxTX_q_KPrcElpraufrz-10">
          <mxGeometry relative="1" as="geometry" />
        </mxCell>
        <mxCell id="oxTX_q_KPrcElpraufrz-28" value="Data Flow" style="edgeLabel;html=1;align=center;verticalAlign=middle;resizable=0;points=[];" vertex="1" connectable="0" parent="oxTX_q_KPrcElpraufrz-27">
          <mxGeometry x="0.4618" y="-1" relative="1" as="geometry">
            <mxPoint x="-81" y="-1" as="offset" />
          </mxGeometry>
        </mxCell>
        <mxCell id="oxTX_q_KPrcElpraufrz-12" value="ElasticSearch" style="rounded=1;whiteSpace=wrap;html=1;fillColor=#e1d5e7;strokeColor=#9673a6;" vertex="1" parent="1">
          <mxGeometry x="30" y="750" width="120" height="60" as="geometry" />
        </mxCell>
        <mxCell id="oxTX_q_KPrcElpraufrz-13" value="ElastAlert" style="rounded=1;whiteSpace=wrap;html=1;fillColor=#e1d5e7;strokeColor=#9673a6;" vertex="1" parent="1">
          <mxGeometry x="-50" y="910" width="120" height="60" as="geometry" />
        </mxCell>
        <mxCell id="oxTX_q_KPrcElpraufrz-14" value="Kibana" style="rounded=1;whiteSpace=wrap;html=1;fillColor=#e1d5e7;strokeColor=#9673a6;" vertex="1" parent="1">
          <mxGeometry x="130" y="910" width="120" height="60" as="geometry" />
        </mxCell>
        <mxCell id="oxTX_q_KPrcElpraufrz-22" style="edgeStyle=orthogonalEdgeStyle;rounded=0;orthogonalLoop=1;jettySize=auto;html=1;exitX=0;exitY=0.5;exitDx=0;exitDy=0;" edge="1" parent="1" source="oxTX_q_KPrcElpraufrz-8">
          <mxGeometry relative="1" as="geometry">
            <mxPoint x="90" y="597" as="targetPoint" />
          </mxGeometry>
        </mxCell>
        <mxCell id="oxTX_q_KPrcElpraufrz-23" value="Data" style="edgeLabel;html=1;align=center;verticalAlign=middle;resizable=0;points=[];" vertex="1" connectable="0" parent="oxTX_q_KPrcElpraufrz-22">
          <mxGeometry x="-0.5369" y="4" relative="1" as="geometry">
            <mxPoint as="offset" />
          </mxGeometry>
        </mxCell>
      </root>
    </mxGraphModel>
  </diagram>
</mxfile>
